<?xml version="1.0" standalone="no"?>
<!DOCTYPE svg PUBLIC "-//W3C//DTD SVG 20010904//EN"
 "http://www.w3.org/TR/2001/REC-SVG-20010904/DTD/svg10.dtd">
<svg version="1.0" xmlns="http://www.w3.org/2000/svg"
 width="1280.000000pt" height="1168.000000pt" viewBox="0 0 1280.000000 1168.000000"
 preserveAspectRatio="xMidYMid meet">
<rect width="100%" height="100%" fill="white"/>
<g transform="translate(0.000000,1168.000000) scale(0.100000,-0.100000)"
fill="#000000" stroke="none">
<path d="M10535 11006 c-180 -77 -330 -120 -535 -151 -224 -34 -552 -31 -1740
15 -900 35 -1189 42 -1765 43 -539 1 -714 -5 -1035 -33 -811 -72 -1489 -245
-2029 -516 -784 -394 -1223 -940 -1346 -1674 -9 -52 -19 -174 -22 -270 -20
-598 161 -1089 539 -1462 470 -463 1149 -656 1978 -562 388 44 816 157 1205
319 245 102 620 295 723 372 41 31 116 177 107 209 -6 27 -111 198 -131 215
-9 7 -50 19 -92 26 l-77 13 -125 -65 c-877 -458 -1391 -617 -1995 -618 -352 0
-656 68 -895 200 -184 102 -366 257 -477 408 -104 139 -189 331 -230 517 -26
119 -26 513 0 643 38 188 111 365 219 527 92 139 289 331 448 438 282 188 648
326 1025 384 465 72 1143 61 2560 -44 149 -11 360 -27 470 -35 771 -57 1579
-95 2016 -95 446 0 617 42 824 205 70 55 445 436 578 587 119 136 152 221 123
320 -38 132 -145 161 -321 84z"/>
<path d="M9595 9640 c-93 -25 -677 -272 -721 -305 -59 -45 -122 -134 -184
-260 -145 -296 -269 -728 -475 -1659 -160 -727 -375 -1632 -405 -1711 -8 -20
-17 -23 -107 -29 -227 -15 -759 -28 -1355 -34 -565 -6 -639 -9 -653 -23 -9 -9
-32 -73 -50 -142 -44 -159 -41 -168 48 -196 272 -84 903 -159 1710 -203 125
-7 233 -15 239 -19 14 -9 -19 -173 -93 -469 -149 -590 -302 -1024 -509 -1445
-173 -354 -323 -575 -535 -794 -315 -324 -654 -485 -1067 -507 -482 -25 -803
161 -849 494 -27 191 33 369 206 604 107 147 443 470 795 766 197 166 208 178
230 250 11 35 20 72 20 82 0 24 -125 177 -152 185 -11 4 -57 1 -104 -5 l-84
-12 -145 -109 c-322 -240 -552 -436 -786 -669 -256 -254 -444 -484 -584 -715
-282 -465 -347 -912 -184 -1263 159 -344 503 -542 944 -545 147 -1 228 9 385
49 701 175 1621 818 2245 1569 529 635 949 1433 1253 2375 l37 115 235 1 c251
0 320 9 495 59 132 39 223 79 323 145 210 139 318 296 329 480 4 67 2 79 -19
110 -38 57 -57 62 -198 56 -69 -3 -180 -14 -248 -26 -122 -20 -371 -45 -574
-57 -102 -6 -108 -5 -108 13 0 11 133 494 295 1074 470 1677 634 2287 667
2478 27 160 -40 283 -167 305 -16 3 -61 -3 -100 -13z"/>
</g>
</svg>
